<svg xmlns="http://www.w3.org/2000/svg" viewBox="0 0 577.43 577.42"><defs><style>.cls-1{fill:#3dd9eb;}.cls-2{fill:#184feb;}.cls-3{fill:#fff;}</style></defs><g id="Layer_2" data-name="Layer 2"><g id="Layer_1-2" data-name="Layer 1"><path class="cls-1" d="M577.43,53.06V524.35a53.07,53.07,0,0,1-53.06,53.07H53.08A53.08,53.08,0,0,1,0,524.35V53.06A53.07,53.07,0,0,1,53.08,0H524.37A53.07,53.07,0,0,1,577.43,53.06Z"/><path class="cls-2" d="M577.43,247.76V524.35a53.07,53.07,0,0,1-53.06,53.07H53.08A53.08,53.08,0,0,1,0,524.35V452.63L79.65,373a63.72,63.72,0,0,0,68.19-12.76l69.34,46.52v.76a63.69,63.69,0,1,0,116-36.31L445.32,204.1a64.84,64.84,0,0,0,9.3.67,63.41,63.41,0,0,0,38.95-13.28Z"/><path class="cls-3" d="M577.43,197.49v57.34L495.68,200a63.79,63.79,0,0,1-48.25,12.6L335.3,379.68a63.68,63.68,0,1,1-116,36.3v-.75L150,368.71a63.72,63.72,0,0,1-68.19,12.76L0,463.23V391.17l46.35-46.35a63.69,63.69,0,1,1,123.37-22.24c0,.67,0,1.35,0,2l68.6,46a63.66,63.66,0,0,1,57.2-17.09L406.28,188.43a63.68,63.68,0,1,1,114.14-38.85,65,65,0,0,1-.67,9.21Z"/></g></g></svg>