<svg id="Layer_1" data-name="Layer 1" xmlns="http://www.w3.org/2000/svg" viewBox="0 0 1000.97 226.52"><defs><style>.cls-1{fill:#3dd9eb;}.cls-2{fill:#184feb;}.cls-3{fill:#fff;}.cls-4{font-size:150px;font-family:Poppins-Bold, Poppins;font-weight:700;}.cls-4,.cls-5{fill:#777778;}.cls-5{font-size:72px;font-family:Raleway-Regular, Raleway;}.cls-6{letter-spacing:-0.02em;}</style></defs><path class="cls-1" d="M358.72,262.68V429.23A18.76,18.76,0,0,1,340,448H173.42a18.76,18.76,0,0,1-18.76-18.75V262.68a18.76,18.76,0,0,1,18.76-18.75H340A18.76,18.76,0,0,1,358.72,262.68Z" transform="translate(-154.66 -229.31)"/><path class="cls-2" d="M358.72,331.49v97.74A18.76,18.76,0,0,1,340,448H173.42a18.76,18.76,0,0,1-18.76-18.75V403.88l28.15-28.14a22.56,22.56,0,0,0,24.1-4.51l24.5,16.44v.26a22.51,22.51,0,1,0,41-12.83L312,316.05a22.55,22.55,0,0,0,17.05-4.45Z" transform="translate(-154.66 -229.31)"/><path class="cls-3" d="M358.72,313.72V334L329.83,314.6a22.55,22.55,0,0,1-17.05,4.45L273.15,378.1a22.5,22.5,0,1,1-41,12.83v-.26l-24.51-16.44a22.54,22.54,0,0,1-24.09,4.51l-28.9,28.89V382.17L171,365.78a22.51,22.51,0,1,1,43.6-7.85c0,.23,0,.47,0,.71l24.24,16.27a22.4,22.4,0,0,1,15.79-6.48,22.09,22.09,0,0,1,4.42.44l39.16-58.35a22.5,22.5,0,1,1,40.33-13.73,23.13,23.13,0,0,1-.23,3.25Z" transform="translate(-154.66 -229.31)"/><text class="cls-4" transform="translate(232.68 127.87)">SinarMart</text><text class="cls-5" transform="translate(250.57 210.42)">Ana<tspan class="cls-6" x="129.89" y="0">l</tspan><tspan x="148.25" y="0">ytics</tspan></text></svg>