<svg xmlns="http://www.w3.org/2000/svg" viewBox="0 0 1000.97 226.52"><defs><style>.cls-1{fill:#3dd9eb;}.cls-2{fill:#184feb;}.cls-3{fill:#fff;}.cls-4{font-size:150px;font-family:Poppins-Bold, Poppins;font-weight:700;}.cls-4,.cls-5{fill:#777778;}.cls-5{font-size:72px;font-family:Raleway-Regular, Raleway;}.cls-6{letter-spacing:-0.02em;}</style></defs><g id="Layer_2" data-name="Layer 2"><g id="Layer_1-2" data-name="Layer 1"><path class="cls-1" d="M204.06,33.38V199.92a18.76,18.76,0,0,1-18.75,18.76H18.76A18.76,18.76,0,0,1,0,199.92V33.38A18.76,18.76,0,0,1,18.76,14.62H185.31A18.76,18.76,0,0,1,204.06,33.38Z"/><path class="cls-2" d="M204.06,102.18v97.74a18.76,18.76,0,0,1-18.75,18.76H18.76A18.76,18.76,0,0,1,0,199.92V174.58l28.15-28.15a22.48,22.48,0,0,0,24.09-4.51l24.51,16.44v.27a22.51,22.51,0,1,0,41-12.83l39.63-59.05a22.52,22.52,0,0,0,17-4.46Z"/><path class="cls-3" d="M204.06,84.41v20.27L175.17,85.29a22.52,22.52,0,0,1-17,4.46L118.49,148.8a22.5,22.5,0,1,1-41,12.83v-.27L53,144.92a22.48,22.48,0,0,1-24.09,4.51L0,178.33V152.86l16.38-16.38A22.23,22.23,0,0,1,15,128.62a22.51,22.51,0,1,1,45,0c0,.24,0,.48,0,.71L84.21,145.6a22.47,22.47,0,0,1,20.21-6l39.16-58.35a22.5,22.5,0,1,1,40.33-13.73,23.27,23.27,0,0,1-.23,3.26Z"/><text class="cls-4" transform="translate(232.68 127.87)">SinarMart</text><text class="cls-5" transform="translate(250.57 210.42)">Ana<tspan class="cls-6" x="129.89" y="0">l</tspan><tspan x="148.25" y="0">ytics</tspan></text></g></g></svg>